<svg xmlns="http://www.w3.org/2000/svg" viewBox="0 0 20.28 24"><defs><style>.cls-1{fill:#bdc3c7}.cls-2{fill:#95a5a6}.cls-3{fill:#7f8c8d}.cls-4{fill:#ecf0f1}.cls-5{fill:#e67e22}.cls-6{fill:#34495e}.cls-7{fill:#2c3e50}.cls-8{fill:#d35400}</style></defs><title>notepad</title><g id="Calque_2" data-name="Calque 2"><g id="Calque_1-2" data-name="Calque 1"><path d="M2,2A2,2,0,0,0,0,4V22a2,2,0,0,0,2,2H16a2,2,0,0,0,2-2V4a2,2,0,0,0-2-2H2Z" class="cls-1"/><path d="M3,0A1,1,0,0,0,2,1V4A1,1,0,0,0,3,5,1,1,0,0,0,4,4V1A1,1,0,0,0,3,0ZM7,0A1,1,0,0,0,6,1V4A1,1,0,0,0,8,4V1A1,1,0,0,0,7,0Zm4,0a1,1,0,0,0-1,1V4a1,1,0,0,0,2,0V1A1,1,0,0,0,11,0Zm4,0a1,1,0,0,0-1,1V4a1,1,0,0,0,2,0V1A1,1,0,0,0,15,0Z" class="cls-2"/><rect width="12" height="1" x="3" y="15" class="cls-2"/><rect width="12" height="1" x="3" y="12" class="cls-2"/><rect width="12" height="1" x="3" y="9" class="cls-2"/><rect width="4" height="1" x="3" y="18" class="cls-2"/><path d="M2,4A1,1,0,0,0,3,5,1,1,0,0,0,4,4ZM6,4A1,1,0,0,0,8,4Zm4,0a1,1,0,0,0,2,0Zm4,0a1,1,0,0,0,2,0Z" class="cls-3"/><path d="M0,21v1a2,2,0,0,0,2,2H16a2,2,0,0,0,2-2V21a2,2,0,0,1-2,2H2A2,2,0,0,1,0,21Z" class="cls-2"/><path d="M16.16,7l-8,8-.49.49L7,16.16V19H9.79l.71-.71.49-.49,8-8Z" class="cls-4"/><path d="M17.57,8.38,7,19H9.79l.71-.71.49-.49,8-8Z" class="cls-1"/><rect width="11" height="4" x="7.48" y="10.98" class="cls-5" transform="translate(-5.38 12.98) rotate(-45)"/><path d="M19.69,6.26a2,2,0,0,0-2.83,0L16.16,7,19,9.79l.71-.71A2,2,0,0,0,19.69,6.26Z" class="cls-3"/><path d="M7,17v2h2L8,18Z" class="cls-6"/><path d="M8,18,7,19h2Z" class="cls-7"/><path d="M19.69,6.26a2,2,0,0,0-2.83,0L16.16,7l1.41,1.41Z" class="cls-2"/><rect width="11" height="2" x="8.18" y="12.68" class="cls-8" transform="translate(-5.67 13.68) rotate(-45)"/></g></g></svg>